<svg xmlns="http://www.w3.org/2000/svg" viewBox="0 0 83.79 62.07"><defs><style>.cls-1{fill:#fff;}</style></defs><title>LOGO SG BLANCO</title><g id="Capa_2" data-name="Capa 2"><g id="Capa_1-2" data-name="Capa 1"><path class="cls-1" d="M51.61.27S35.52-3.65,28.91,18.6C23.15,38,16.91,37,16.91,37s14.33,6.67,20.33-13.75C43.16,3.14,48.61,1.6,51.61.27Z"/><path class="cls-1" d="M33.17,1.1S20-5.53,12,18.6C5.67,37.79,0,37,0,37s14.33,6.67,20.33-13.75C26.25,3.14,30.17,2.43,33.17,1.1Z"/><path class="cls-1" d="M83.61,45c-1.44-6.76-11.33-10.37-22.09-8.07a31.43,31.43,0,0,0-3.76,1c-7.25-2.67.78-10.82.78-10.82a17.92,17.92,0,0,0,4.68.62c8.65,0,15.67-6.12,15.67-13.67A13,13,0,0,0,73.56,3.83,17,17,0,0,0,63.22.43C54.57.43,47.55,6.55,47.55,14.1c0,5.55,3.79,10.33,9.24,12.47,0,0-14.39,7.2-5.72,14.78-4.71,3.3-7.31,7.75-6.41,12C46.1,60.07,56,63.68,66.75,61.38S85.06,51.74,83.61,45ZM55.8,13.68c0-6.07,3.32-11,7.42-11s7.42,4.93,7.42,11-3.32,11-7.42,11S55.8,19.76,55.8,13.68ZM66.36,57.9c-7.45,1.6-14.14-.1-14.93-3.79s4.62-8,12.07-9.57,14.15.1,14.94,3.79S73.82,56.31,66.36,57.9Z"/></g></g></svg>